# xmcd
#
# Track frame offsets: 
#        150
#        36886
#        77762
#        100271
#        141621
#        169425
#        196653
#        217016
#        241472
#        268201
#
# Disc length: 3982 seconds
#
# Revision: 0
# Processed by: cddbd v1.5.2PL0 Copyright (c) Steve Scherf et al.
# Submitted via: ExactAudioCopy v0.99pb5
#
DISCID=980f8c0a
DTITLE=Kiss  - The Hottest Show On Earth - Scranton, PA  [CD2]
DYEAR=1900
DGENRE=
TTITLE0=I Love It Loud
TTITLE1=Love Gun
TTITLE2=Black Diamond
TTITLE3=Detroit Rock City
TTITLE4=Beth
TTITLE5=Lick It Up
TTITLE6=Shout It Out Loud
TTITLE7=I Was Made For Lovin' You
TTITLE8=God Gave Rock And Roll To You II
TTITLE9=Rock And Roll All Nite
EXTD=
EXTT0=
EXTT1=
EXTT2=
EXTT3=
EXTT4=
EXTT5=
EXTT6=
EXTT7=
EXTT8=
EXTT9=
PLAYORDER=
